<?xml version="1.0" encoding="UTF-8"?>
<svg version="1.1" xmlns="http://www.w3.org/2000/svg" width="412" height="121">
<path d="M0 0 C135.96 0 271.92 0 412 0 C412 39.93 412 79.86 412 121 C276.04 121 140.08 121 0 121 C0 81.07 0 41.14 0 0 Z " fill="#FDFDFD" transform="translate(0,0)"/>
<path d="M0 0 C0.66 0 1.32 0 2 0 C2 0.99 2 1.98 2 3 C4.64 3 7.28 3 10 3 C10 2.01 10 1.02 10 0 C10.66 0 11.32 0 12 0 C12 0.99 12 1.98 12 3 C14.64 3 17.28 3 20 3 C20 2.01 20 1.02 20 0 C20.66 0 21.32 0 22 0 C22 0.99 22 1.98 22 3 C24.64 3 27.28 3 30 3 C30 2.01 30 1.02 30 0 C30.66 0 31.32 0 32 0 C32 0.99 32 1.98 32 3 C34.64 3 37.28 3 40 3 C40 2.01 40 1.02 40 0 C40.66 0 41.32 0 42 0 C42 0.99 42 1.98 42 3 C44.64 3 47.28 3 50 3 C50 2.01 50 1.02 50 0 C50.66 0 51.32 0 52 0 C52 0.99 52 1.98 52 3 C54.64 3 57.28 3 60 3 C60 2.01 60 1.02 60 0 C60.66 0 61.32 0 62 0 C62 0.99 62 1.98 62 3 C63.0725 3.0825 64.145 3.165 65.25 3.25 C71.0817043 3.95274134 76.49587789 6.02768958 82 8 C82 10.64 82 13.28 82 16 C82.66 16 83.32 16 84 16 C84.86762314 18.24561282 85.7192103 20.49526255 86.5625 22.75 C86.9327832 23.70132813 86.9327832 23.70132813 87.31054688 24.671875 C88.58197079 28.11009179 89.46686355 30.52168882 88 34 C86.68 34.33 85.36 34.66 84 35 C83.855625 35.804375 83.71125 36.60875 83.5625 37.4375 C83 40 83 40 82 41 C79.46950598 41.07313567 76.96695163 41.09247527 74.4375 41.0625 C73.72658203 41.05798828 73.01566406 41.05347656 72.28320312 41.04882812 C70.52209987 41.03700864 68.76103964 41.01907263 67 41 C65.68 37.37 64.36 33.74 63 30 C62.67 30.66 62.34 31.32 62 32 C60.515 32.495 60.515 32.495 59 33 C60.98 33.495 60.98 33.495 63 34 C63 36.97 63 39.94 63 43 C62.01 43 61.02 43 60 43 C59.67 44.98 59.34 46.96 59 49 C58.34 49 57.68 49 57 49 C56.67 49.99 56.34 50.98 56 52 C53.38254237 54.01342894 51.90095866 53.9963985 48.5625 53.875 C44.65483494 52.91522262 42.82531228 51.82531228 40 49 C38.6875 46.75 38.6875 46.75 38 45 C37.4225 46.11375 36.845 47.2275 36.25 48.375 C34.98070183 50.57186222 34.15365192 51.88220019 32.125 53.4375 C29.14942718 54.22515163 27.07672478 54.43074147 24 54 C20.14813593 51.52899286 18.30755458 50.16431376 17.125 45.6875 C17.08375 44.800625 17.0425 43.91375 17 43 C12.65815798 43.18464366 12.65815798 43.18464366 9 45 C7.50261876 45.0979057 6.00057108 45.12974864 4.5 45.125 C3.6853125 45.12757812 2.870625 45.13015625 2.03125 45.1328125 C0 45 0 45 -1 44 C-3.32817964 43.63239269 -5.6618385 43.29758419 -8 43 C-8.04125 43.886875 -8.0825 44.77375 -8.125 45.6875 C-9.30755458 50.16431376 -11.14813593 51.52899286 -15 54 C-18.61849825 54.59077522 -20.4219131 54.26276677 -23.75 52.75 C-26.12195739 50.90514426 -27.05783877 49.82648369 -28 47 C-28 45.68 -28 44.36 -28 43 C-28.92232422 43.05220703 -28.92232422 43.05220703 -29.86328125 43.10546875 C-30.67152344 43.13253906 -31.47976562 43.15960938 -32.3125 43.1875 C-33.51326172 43.23970703 -33.51326172 43.23970703 -34.73828125 43.29296875 C-37.57996269 42.9248753 -38.23024045 42.20942841 -40 40 C-42.40334476 30.88275972 -41.43122743 19.94169852 -36.71459961 11.80297852 C-33.67037704 7.40588091 -30.81483737 3.78593251 -25.50097656 2.30224609 C-19.76391395 1.54670943 -13.635051 1.55266617 -8 3 C-6 5 -6 5 -5.875 8.125 C-5.91625 9.07375 -5.9575 10.0225 -6 11 C-5.34 11 -4.68 11 -4 11 C-4 18.59 -4 26.18 -4 34 C3.26 33.67 10.52 33.34 18 33 C12.06 32.67 6.12 32.34 0 32 C0 21.44 0 10.88 0 0 Z " fill="#54A834" transform="translate(65,38)"/>
<path d="M0 0 C2 2 2 2 2.125 5.125 C2.08375 6.07375 2.0425 7.0225 2 8 C2.66 8 3.32 8 4 8 C4 15.59 4 23.18 4 31 C7.58875 30.87625 11.1775 30.7525 14.875 30.625 C16.57052002 30.57400146 16.57052002 30.57400146 18.30029297 30.52197266 C19.63278076 30.46855713 19.63278076 30.46855713 20.9921875 30.4140625 C21.90339355 30.3826416 22.81459961 30.3512207 23.75341797 30.31884766 C26.19931186 30.20117489 26.19931186 30.20117489 28 28 C30.79684797 27.82474945 33.4932808 27.76856811 36.2890625 27.8046875 C37.51669815 27.80893234 37.51669815 27.80893234 38.76913452 27.81326294 C41.38790393 27.82447468 44.00633364 27.84958071 46.625 27.875 C48.39843257 27.88502853 50.17187049 27.8941546 51.9453125 27.90234375 C56.29700626 27.92441722 60.6484455 27.95895356 65 28 C65 28.66 65 29.32 65 30 C63.515 30.495 63.515 30.495 62 31 C62.825 31.804375 63.65 32.60875 64.5 33.4375 C67.47253985 36.92918765 67.43263066 39.79502351 67.17578125 44.2421875 C67.11777344 44.82226562 67.05976562 45.40234375 67 46 C66.34 46 65.68 46 65 46 C64.67 46.99 64.34 47.98 64 49 C61.38254237 51.01342894 59.90095866 50.9963985 56.5625 50.875 C52.65483494 49.91522262 50.82531228 48.82531228 48 46 C46.6875 43.75 46.6875 43.75 46 42 C45.4225 43.11375 44.845 44.2275 44.25 45.375 C42.98070183 47.57186222 42.15365192 48.88220019 40.125 50.4375 C37.14942718 51.22515163 35.07672478 51.43074147 32 51 C28.14813593 48.52899286 26.30755458 47.16431376 25.125 42.6875 C25.08375 41.800625 25.0425 40.91375 25 40 C20.65815798 40.18464366 20.65815798 40.18464366 17 42 C15.50261876 42.0979057 14.00057108 42.12974864 12.5 42.125 C11.6853125 42.12757812 10.870625 42.13015625 10.03125 42.1328125 C8 42 8 42 7 41 C4.67182036 40.63239269 2.3381615 40.29758419 0 40 C-0.04125 40.886875 -0.0825 41.77375 -0.125 42.6875 C-1.30755458 47.16431376 -3.14813593 48.52899286 -7 51 C-10.61849825 51.59077522 -12.4219131 51.26276677 -15.75 49.75 C-18.12195739 47.90514426 -19.05783877 46.82648369 -20 44 C-20 42.68 -20 41.36 -20 40 C-20.92232422 40.05220703 -20.92232422 40.05220703 -21.86328125 40.10546875 C-22.67152344 40.13253906 -23.47976562 40.15960938 -24.3125 40.1875 C-25.51326172 40.23970703 -25.51326172 40.23970703 -26.73828125 40.29296875 C-29.57996269 39.9248753 -30.23024045 39.20942841 -32 37 C-34.40334476 27.88275972 -33.43122743 16.94169852 -28.71459961 8.80297852 C-21.64818936 -1.40379675 -11.83519141 -3.03980796 0 0 Z " fill="#53A335" transform="translate(57,41)"/>
<path d="M0 0 C69.3 0 138.6 0 210 0 C210 1.98 210 3.96 210 6 C140.7 6 71.4 6 0 6 C0 4.02 0 2.04 0 0 Z " fill="#47BB89" transform="translate(175,85)"/>
<path d="M0 0 C0.33 0 0.66 0 1 0 C1 1.98 1 3.96 1 6 C1.66 6 2.32 6 3 6 C3 13.59 3 21.18 3 29 C6.58875 28.87625 10.1775 28.7525 13.875 28.625 C15.57052002 28.57400146 15.57052002 28.57400146 17.30029297 28.52197266 C18.63278076 28.46855713 18.63278076 28.46855713 19.9921875 28.4140625 C20.90339355 28.3826416 21.81459961 28.3512207 22.75341797 28.31884766 C25.19931186 28.20117489 25.19931186 28.20117489 27 26 C29.79684797 25.82474945 32.4932808 25.76856811 35.2890625 25.8046875 C36.51669815 25.80893234 36.51669815 25.80893234 37.76913452 25.81326294 C40.38790393 25.82447468 43.00633364 25.84958071 45.625 25.875 C47.39843257 25.88502853 49.17187049 25.8941546 50.9453125 25.90234375 C55.29700626 25.92441722 59.6484455 25.95895356 64 26 C64 26.66 64 27.32 64 28 C62.515 28.495 62.515 28.495 61 29 C61.825 29.804375 62.65 30.60875 63.5 31.4375 C66.47253985 34.92918765 66.43263066 37.79502351 66.17578125 42.2421875 C66.11777344 42.82226562 66.05976562 43.40234375 66 44 C65.34 44 64.68 44 64 44 C63.67 44.99 63.34 45.98 63 47 C60.38254237 49.01342894 58.90095866 48.9963985 55.5625 48.875 C51.65483494 47.91522262 49.82531228 46.82531228 47 44 C45.6875 41.75 45.6875 41.75 45 40 C44.4225 41.11375 43.845 42.2275 43.25 43.375 C41.98070183 45.57186222 41.15365192 46.88220019 39.125 48.4375 C36.14942718 49.22515163 34.07672478 49.43074147 31 49 C27.14813593 46.52899286 25.30755458 45.16431376 24.125 40.6875 C24.08375 39.800625 24.0425 38.91375 24 38 C19.65815798 38.18464366 19.65815798 38.18464366 16 40 C14.50261876 40.0979057 13.00057108 40.12974864 11.5 40.125 C10.6853125 40.12757812 9.870625 40.13015625 9.03125 40.1328125 C7 40 7 40 6 39 C4.88625 38.938125 3.7725 38.87625 2.625 38.8125 C1.42875 38.544375 0.2325 38.27625 -1 38 C-2.75 35.0625 -2.75 35.0625 -4 32 C-7.03525486 29.97649676 -8.19426202 29.67875982 -11.6875 29.375 C-12.49574219 29.30023438 -13.30398437 29.22546875 -14.13671875 29.1484375 C-14.75160156 29.09945312 -15.36648437 29.05046875 -16 29 C-13 27 -13 27 -9.625 27.125 C-5.74116895 28.06247646 -3.91417243 29.34296043 -1 32 C-0.67 32 -0.34 32 0 32 C0 21.44 0 10.88 0 0 Z " fill="#27292D" transform="translate(58,43)"/>
<path d="M0 0 C0.66 0 1.32 0 2 0 C2 0.99 2 1.98 2 3 C3.0725 3.0825 4.145 3.165 5.25 3.25 C11.0817043 3.95274134 16.49587789 6.02768958 22 8 C22 10.64 22 13.28 22 16 C22.66 16 23.32 16 24 16 C24.86762314 18.24561282 25.7192103 20.49526255 26.5625 22.75 C26.9327832 23.70132813 26.9327832 23.70132813 27.31054688 24.671875 C28.58197079 28.11009179 29.46686355 30.52168882 28 34 C26.02 34.495 26.02 34.495 24 35 C23.855625 35.804375 23.71125 36.60875 23.5625 37.4375 C23 40 23 40 22 41 C19.46950598 41.07313567 16.96695163 41.09247527 14.4375 41.0625 C13.72658203 41.05798828 13.01566406 41.05347656 12.28320312 41.04882812 C10.52209987 41.03700864 8.76103964 41.01907263 7 41 C5.02 35.555 5.02 35.555 3 30 C2.67 30.66 2.34 31.32 2 32 C0.515 32.495 0.515 32.495 -1 33 C0.32 33.33 1.64 33.66 3 34 C3 36.97 3 39.94 3 43 C2.01 43 1.02 43 0 43 C-0.33 43.66 -0.66 44.32 -1 45 C-1.268125 43.906875 -1.53625 42.81375 -1.8125 41.6875 C-3.22438861 37.3032143 -4.24718098 35.95153032 -8.1875 33.8125 C-8.785625 33.544375 -9.38375 33.27625 -10 33 C-7.69 33 -5.38 33 -3 33 C-3 32.01 -3 31.02 -3 30 C-4.65 30 -6.3 30 -8 30 C-8 21.09 -8 12.18 -8 3 C-5.36 3 -2.72 3 0 3 C0 2.01 0 1.02 0 0 Z " fill="#55A935" transform="translate(125,38)"/>
<path d="M0 0 C1.32 0 2.64 0 4 0 C4.33 3.63 4.66 7.26 5 11 C5.99 10.01 6.98 9.02 8 8 C12.0960039 8 14.21231937 8.23754757 17.1953125 11.125 C19.42134281 14.6712301 19.50473442 16.84043061 19.4375 21 C19.43621094 22.19625 19.43492187 23.3925 19.43359375 24.625 C18.93627576 28.49601567 17.78292403 31.21707597 15 34 C9.26388889 34.27314815 9.26388889 34.27314815 7 34 C6.34 33.34 5.68 32.68 5 32 C4.67 32.66 4.34 33.32 4 34 C2.68 34 1.36 34 0 34 C0 22.78 0 11.56 0 0 Z " fill="#080808" transform="translate(261,38)"/>
<path d="M0 0 C2.92937654 1.81310142 5.43647949 3.87295899 7 7 C8.0308578 18.2887379 8.0308578 18.2887379 5.0625 22.6875 C2.12151836 25.98496426 2.12151836 25.98496426 0.07421875 26.23828125 C-6.4133054 26.44002095 -6.4133054 26.44002095 -9.5 24.125 C-12.16245586 20.35318753 -12.22056947 17.80821882 -12.3125 13.1875 C-12.34988281 11.96417969 -12.38726562 10.74085937 -12.42578125 9.48046875 C-11.92980695 5.4262201 -10.84899719 3.85956861 -8 1 C-5.09704195 -0.45147903 -3.22738221 -0.37239025 0 0 Z " fill="#121212" transform="translate(307,46)"/>
<path d="M0 0 C1.22551323 0.00636726 1.22551323 0.00636726 2.4757843 0.01286316 C5.08445232 0.02965184 7.69234687 0.06730356 10.30078125 0.10546875 C12.0696503 0.12051538 13.83853146 0.13420383 15.60742188 0.14648438 C19.94300621 0.17955589 24.27801261 0.23133885 28.61328125 0.29296875 C28.61328125 0.95296875 28.61328125 1.61296875 28.61328125 2.29296875 C27.62328125 2.62296875 26.63328125 2.95296875 25.61328125 3.29296875 C26.43828125 4.09734375 27.26328125 4.90171875 28.11328125 5.73046875 C31.0858211 9.2221564 31.04591191 12.08799226 30.7890625 16.53515625 C30.70205078 17.40527344 30.70205078 17.40527344 30.61328125 18.29296875 C29.95328125 18.29296875 29.29328125 18.29296875 28.61328125 18.29296875 C28.11828125 19.77796875 28.11828125 19.77796875 27.61328125 21.29296875 C24.99582362 23.30639769 23.51423991 23.28936725 20.17578125 23.16796875 C16.19631365 22.19055566 14.34279101 21.3435973 11.61328125 18.29296875 C10.61920597 14.64802607 10.38402151 12.21000772 11.30078125 8.54296875 C12.76055675 6.04049646 14.27525704 4.95006126 16.61328125 3.29296875 C12.55102304 3.17658449 8.48919495 3.10565502 4.42578125 3.04296875 C3.27529297 3.00945312 2.12480469 2.9759375 0.93945312 2.94140625 C-0.17236328 2.92851563 -1.28417969 2.915625 -2.4296875 2.90234375 C-3.9614563 2.87092285 -3.9614563 2.87092285 -5.52416992 2.83886719 C-9.09775344 3.40576402 -10.77028185 4.86357031 -13.38671875 7.29296875 C-10.30560276 0.41971 -7.35163054 -0.14339254 0 0 Z " fill="#262B2A" transform="translate(93.38671875,68.70703125)"/>
<path d="M0 0 C0.33 0 0.66 0 1 0 C1 1.98 1 3.96 1 6 C1.66 6 2.32 6 3 6 C3 13.59 3 21.18 3 29 C9.93 29 16.86 29 24 29 C24 29.66 24 30.32 24 31 C24.350625 30.505 24.70125 30.01 25.0625 29.5 C27.94374289 27.26936034 30.47009026 27.80019379 34 28 C33.4225 28.268125 32.845 28.53625 32.25 28.8125 C27.70038814 31.21368404 25.6185222 33.00955654 24 38 C22.865625 38.144375 21.73125 38.28875 20.5625 38.4375 C17.19222799 38.61171478 17.19222799 38.61171478 16 40 C14.50261876 40.0979057 13.00057108 40.12974864 11.5 40.125 C10.6853125 40.12757812 9.870625 40.13015625 9.03125 40.1328125 C7 40 7 40 6 39 C4.88625 38.938125 3.7725 38.87625 2.625 38.8125 C1.42875 38.544375 0.2325 38.27625 -1 38 C-2.75 35.0625 -2.75 35.0625 -4 32 C-7.03525486 29.97649676 -8.19426202 29.67875982 -11.6875 29.375 C-12.49574219 29.30023438 -13.30398437 29.22546875 -14.13671875 29.1484375 C-14.75160156 29.09945312 -15.36648437 29.05046875 -16 29 C-13 27 -13 27 -9.625 27.125 C-5.74116895 28.06247646 -3.91417243 29.34296043 -1 32 C-0.67 32 -0.34 32 0 32 C0 21.44 0 10.88 0 0 Z " fill="#656E6C" transform="translate(58,43)"/>
<path d="M0 0 C3.49642065 1.92659913 4.68231206 2.92474851 5.8125 6.75 C5.874375 7.4925 5.93625 8.235 6 9 C4.68 9 3.36 9 2 9 C1.67 7.68 1.34 6.36 1 5 C-0.6026782 4.89175157 -2.20745748 4.81429355 -3.8125 4.75 C-5.15248047 4.68039063 -5.15248047 4.68039063 -6.51953125 4.609375 C-9.07413919 4.78851981 -9.07413919 4.78851981 -10.80078125 6.55078125 C-12.45860977 9.93663949 -12.39733743 12.68108891 -12.375 16.4375 C-12.38273438 17.73558594 -12.39046875 19.03367187 -12.3984375 20.37109375 C-11.9846938 24.13940647 -11.39553289 26.08561898 -9 29 C-5.5 29.75 -5.5 29.75 -2 29 C0.87637713 26.41126058 1.47765853 23.76085859 2 20 C0.35 20 -1.3 20 -3 20 C-3 19.01 -3 18.02 -3 17 C-0.03 17 2.94 17 6 17 C6 22.61 6 28.22 6 34 C5.01 34 4.02 34 3 34 C2.67 33.01 2.34 32.02 2 31 C1.505 31.495 1.01 31.99 0.5 32.5 C-2.96083659 34.57650196 -6.11296936 34.68139182 -10 34 C-13.816352 31.87980444 -15.9503226 29.30409477 -17.4921875 25.18359375 C-19.16279008 18.00000266 -18.78899174 11.12254428 -15.265625 4.62109375 C-11.07937145 -0.74092855 -6.40226774 -0.93236909 0 0 Z " fill="#111111" transform="translate(211,38)"/>
<path d="M0 0 C3.16872216 0.68885264 4.96142228 2.13674555 7.15625 4.46875 C8.73080739 7.61786479 8.50424118 9.98883816 8.15625 13.46875 C6.38344439 16.44547584 4.30016985 18.89679007 1.15625 20.46875 C-3.47929388 20.88079834 -6.14791098 20.34329146 -9.84375 17.46875 C-12.41564679 14.03955428 -12.345892 10.62935514 -11.84375 6.46875 C-8.73903642 0.9603872 -6.06890656 -0.40459377 0 0 Z " fill="#272A2C" transform="translate(48.84375,71.53125)"/>
<path d="M0 0 C2.671875 1.32421875 2.671875 1.32421875 5 4 C5.63064363 7.76349362 5.46932261 11.44765487 5.3125 15.25 C5.28994141 16.28125 5.26738281 17.3125 5.24414062 18.375 C5.18527163 20.91814065 5.10310065 23.45833113 5 26 C4.01 26 3.02 26 2 26 C1.67 25.01 1.34 24.02 1 23 C0.4740625 23.7425 0.4740625 23.7425 -0.0625 24.5 C-3.02552179 26.79395236 -5.37042697 26.38888282 -9 26 C-10.9375 24.875 -10.9375 24.875 -12 23 C-12.55169635 19.37456686 -12.2652275 17.50739174 -10.5625 14.25 C-7.0338214 11.15164806 -3.56260099 10.65319288 1 10 C0.67 8.35 0.34 6.7 0 5 C-3.94727588 4.82057837 -6.5980513 4.90649311 -10 7 C-10 3 -10 3 -8.375 1.25 C-5.27501875 -0.38156908 -3.46543913 -0.49506273 0 0 Z " fill="#101010" transform="translate(234,46)"/>
<path d="M0 0 C1.48831242 0.00667405 2.97660807 0.01863442 4.46484375 0.03515625 C5.22345703 0.03966797 5.98207031 0.04417969 6.76367188 0.04882812 C8.64326246 0.06064945 10.52281274 0.07858547 12.40234375 0.09765625 C12.40234375 4.05765625 12.40234375 8.01765625 12.40234375 12.09765625 C4.48234375 12.09765625 -3.43765625 12.09765625 -11.59765625 12.09765625 C-4.01867413 0.10908453 -4.01867413 0.10908453 0 0 Z " fill="#202329" transform="translate(41.59765625,44.90234375)"/>
<path d="M0 0 C2.64 0 5.28 0 8 0 C8 8.91 8 17.82 8 27 C5.36 27 2.72 27 0 27 C0 18.09 0 9.18 0 0 Z " fill="#7CC835" transform="translate(107,41)"/>
<path d="M0 0 C2.64 0 5.28 0 8 0 C8 8.91 8 17.82 8 27 C5.36 27 2.72 27 0 27 C0 18.09 0 9.18 0 0 Z " fill="#7CC834" transform="translate(97,41)"/>
<path d="M0 0 C2.64 0 5.28 0 8 0 C8 8.91 8 17.82 8 27 C5.36 27 2.72 27 0 27 C0 18.09 0 9.18 0 0 Z " fill="#7CC834" transform="translate(87,41)"/>
<path d="M0 0 C2.64 0 5.28 0 8 0 C8 8.91 8 17.82 8 27 C5.36 27 2.72 27 0 27 C0 18.09 0 9.18 0 0 Z " fill="#7CC834" transform="translate(77,41)"/>
<path d="M0 0 C2.64 0 5.28 0 8 0 C8 8.91 8 17.82 8 27 C5.36 27 2.72 27 0 27 C0 18.09 0 9.18 0 0 Z " fill="#7CC834" transform="translate(67,41)"/>
<path d="M0 0 C2.875 1.875 2.875 1.875 5 4 C5 4.66 5 5.32 5 6 C4.01 6.33 3.02 6.66 2 7 C1.67 6.01 1.34 5.02 1 4 C-1.31 4 -3.62 4 -6 4 C-5.58849847 6.91398245 -5.58849847 6.91398245 -4 10 C-1.98872141 11.30461314 0.00819347 12.22760961 2.22265625 13.140625 C4 14 4 14 5 16 C5.46331564 22.37059007 5.46331564 22.37059007 3.7578125 24.6875 C0.98152318 26.76046269 -1.39868342 26.58639029 -4.76953125 26.50390625 C-8.65493396 25.62611825 -9.90007702 23.25149365 -12 20 C-11.67 19.34 -11.34 18.68 -11 18 C-10.01 18 -9.02 18 -8 18 C-7.54625 18.66 -7.0925 19.32 -6.625 20 C-6.08875 20.66 -5.5525 21.32 -5 22 C-2.37374861 22.33425735 -2.37374861 22.33425735 0 22 C0 20.35 0 18.7 0 17 C-0.63808594 16.65066406 -1.27617187 16.30132812 -1.93359375 15.94140625 C-2.75988281 15.48636719 -3.58617187 15.03132813 -4.4375 14.5625 C-5.26121094 14.11003906 -6.08492188 13.65757813 -6.93359375 13.19140625 C-9 12 -9 12 -10 11 C-10.58690745 3.72234763 -10.58690745 3.72234763 -8.375 1 C-5.27953927 -0.30335189 -3.33425359 -0.47632194 0 0 Z " fill="#121212" transform="translate(374,46)"/>
<path d="M0 0 C2.84780619 2.23206431 3.84997666 3.54992999 5 7 C3.68 7.33 2.36 7.66 1 8 C0.34 7.01 -0.32 6.02 -1 5 C-3.54207971 4.66656449 -3.54207971 4.66656449 -6 5 C-7.35435584 6.12899299 -7.35435584 6.12899299 -7.1328125 9.08984375 C-7.13023437 10.35957031 -7.12765625 11.62929688 -7.125 12.9375 C-7.12886719 14.83822266 -7.12886719 14.83822266 -7.1328125 16.77734375 C-7.22506069 19.89154889 -7.22506069 19.89154889 -6 22 C-3.58380177 22.25030977 -3.58380177 22.25030977 -1 22 C-0.34 21.01 0.32 20.02 1 19 C2.32 19 3.64 19 5 19 C3.92598892 21.91517292 3.22189824 23.77810176 1 26 C-2.05602333 26.5604676 -4.94177858 26.53872584 -8 26 C-11.65947126 22.70647586 -12.71008087 19.61402493 -13.23828125 14.8515625 C-13.42106497 9.36805095 -12.69409032 6.32736295 -9 2 C-5.50875983 -0.32749345 -4.10777749 -0.50299316 0 0 Z " fill="#1A1A1A" transform="translate(355,46)"/>
<path d="M0 0 C2.9375 -0.4375 2.9375 -0.4375 6 0 C8.79271128 2.87773528 9.41162948 4.97541158 9.375 8.9375 C9.23642979 13.01628414 8.9485756 15.94974938 6 19 C3.5 19.5 3.5 19.5 1 19 C-0.63671875 17.875 -0.63671875 17.875 -2 16 C-2.36328125 12.96875 -2.36328125 12.96875 -2.3125 9.5 C-2.30863281 8.3553125 -2.30476563 7.210625 -2.30078125 6.03125 C-2 3 -2 3 0 0 Z " fill="#F8F8F8" transform="translate(301,50)"/>
<path d="M0 0 C2.5 0.5 2.5 0.5 4.1328125 2.1875 C5.79152001 4.99308527 5.90171384 6.75872099 5.875 10 C5.88273437 10.9384375 5.89046875 11.876875 5.8984375 12.84375 C5.44552484 15.86316774 4.50855276 17.24702018 2.5 19.5 C-0.375 19.25 -0.375 19.25 -3.5 18.5 C-5.49948121 15.55059915 -5.79642794 13.0144237 -5.8125 9.5 C-5.82925781 8.654375 -5.84601563 7.80875 -5.86328125 6.9375 C-5.28815942 3.07861801 -3.89916798 0.7798336 0 0 Z " fill="#F5F5F5" transform="translate(270.5,49.5)"/>
<path d="M0 0 C1.32 0 2.64 0 4 0 C4 13.53 4 27.06 4 41 C2.68 41 1.36 41 0 41 C0 27.47 0 13.94 0 0 Z " fill="#404040" transform="translate(175,35)"/>
<path d="M0 0 C2.459636 1.55776947 2.89388592 2.68165777 3.8125 5.4375 C4.02979994 8.40726587 3.73823201 9.59958437 2 12 C-0.54269034 13.90701775 -1.85599893 14.00587759 -5.0625 13.875 C-8 13 -8 13 -9.875 11.25 C-11.24863504 8.50272993 -11.53062116 7.03212094 -11 4 C-7.99829475 -0.44252378 -5.15110438 -0.6555951 0 0 Z " fill="#606568" transform="translate(96,75)"/>
<path d="M0 0 C2.459636 1.55776947 2.89388592 2.68165777 3.8125 5.4375 C4.02979994 8.40726587 3.73823201 9.59958437 2 12 C-0.54269034 13.90701775 -1.85599893 14.00587759 -5.0625 13.875 C-8 13 -8 13 -9.9375 11.3125 C-11.40109489 8.12702876 -10.98928968 6.32118677 -10 3 C-7.61338866 -0.97768557 -4.27600952 -0.45814388 0 0 Z " fill="#616669" transform="translate(118,75)"/>
<path d="M0 0 C1.32 0 2.64 0 4 0 C4 1.98 4 3.96 4 6 C5.65 6 7.3 6 9 6 C9 6.99 9 7.98 9 9 C7.35 9 5.7 9 4 9 C4.33 14.94 4.66 20.88 5 27 C5.99 27.33 6.98 27.66 8 28 C8 28.99 8 29.98 8 31 C5.125 31.1875 5.125 31.1875 2 31 C-0.10209857 27.84685215 -0.2434761 27.13896919 -0.1953125 23.55078125 C-0.18886719 22.70322266 -0.18242187 21.85566406 -0.17578125 20.98242188 C-0.15902344 20.10134766 -0.14226562 19.22027344 -0.125 18.3125 C-0.11597656 17.41982422 -0.10695313 16.52714844 -0.09765625 15.60742188 C-0.07409748 13.40467686 -0.04120329 11.20247412 0 9 C-0.99 9 -1.98 9 -3 9 C-3 8.01 -3 7.02 -3 6 C-2.01 6 -1.02 6 0 6 C0 4.02 0 2.04 0 0 Z " fill="#121212" transform="translate(320,41)"/>
<path d="M0 0 C3.5 0.4375 3.5 0.4375 5.375 1.5625 C7.03173428 4.32372381 7.5 6.20328825 7.5 9.4375 C5.4375 12.375 5.4375 12.375 2.5 14.4375 C-0.7622059 14.4375 -2.62749766 13.99008481 -5.375 12.25 C-7.06589731 9.52577656 -6.88457172 7.57816901 -6.5 4.4375 C-4.86658084 0.78632776 -4.0205891 0.50257364 0 0 Z " fill="#5F6467" transform="translate(46.5,74.5625)"/>
<path d="M0 0 C3.28331258 1.64165629 3.89120045 5.15821012 5.125 8.4375 C5.53419678 9.5193457 5.53419678 9.5193457 5.95166016 10.62304688 C7.93676525 16.16598535 8.76565979 21.10158382 8 27 C5.36 27 2.72 27 0 27 C0 18.09 0 9.18 0 0 Z " fill="#7CC834" transform="translate(117,41)"/>
<path d="M0 0 C1.32 0 2.64 0 4 0 C4.33 0.66 4.66 1.32 5 2 C5.66 1.34 6.32 0.68 7 0 C9.625 -0.125 9.625 -0.125 12 0 C12 0.99 12 1.98 12 3 C10.7934375 3.4640625 10.7934375 3.4640625 9.5625 3.9375 C7.10919595 4.76335345 7.10919595 4.76335345 6 6 C5.84379445 7.41327947 5.74943827 8.8335459 5.68359375 10.25390625 C5.64169922 11.10791016 5.59980469 11.96191406 5.55664062 12.84179688 C5.49766602 14.18854492 5.49766602 14.18854492 5.4375 15.5625 C5.39431641 16.46419922 5.35113281 17.36589844 5.30664062 18.29492188 C5.20021858 20.52978485 5.09820012 22.76476308 5 25 C3.35 25 1.7 25 0 25 C0 16.75 0 8.5 0 0 Z " fill="#222222" transform="translate(245,47)"/>
<path d="M0 0 C0.33 0 0.66 0 1 0 C1 2.64 1 5.28 1 8 C1.66 8 2.32 8 3 8 C3.86762314 10.24561282 4.7192103 12.49526255 5.5625 14.75 C5.80935547 15.38421875 6.05621094 16.0184375 6.31054688 16.671875 C7.58197079 20.11009179 8.46686355 22.52168882 7 26 C5.68 26.33 4.36 26.66 3 27 C2.855625 27.804375 2.71125 28.60875 2.5625 29.4375 C2 32 2 32 1 33 C-1.53049402 33.07313567 -4.03304837 33.09247527 -6.5625 33.0625 C-7.62887695 33.05573242 -7.62887695 33.05573242 -8.71679688 33.04882812 C-10.47790013 33.03700864 -12.23896036 33.01907263 -14 33 C-14 32.67 -14 32.34 -14 32 C-9.38 32 -4.76 32 0 32 C0 21.44 0 10.88 0 0 Z " fill="#84C94A" transform="translate(146,46)"/>
<path d="M0 0 C1.32 0 2.64 0 4 0 C4 8.25 4 16.5 4 25 C2.68 25 1.36 25 0 25 C0 16.75 0 8.5 0 0 Z " fill="#000000" transform="translate(333,47)"/>
<path d="M0 0 C1.32 0 2.64 0 4 0 C4 8.25 4 16.5 4 25 C2.68 25 1.36 25 0 25 C0 16.75 0 8.5 0 0 Z " fill="#161616" transform="translate(286,47)"/>
<path d="M0 0 C3.5 0.4375 3.5 0.4375 5.5 1.6875 C6.5 3.4375 6.5 3.4375 6.1875 5.625 C5.8471875 6.5221875 5.8471875 6.5221875 5.5 7.4375 C-2.5 8.82211538 -2.5 8.82211538 -5.5 7.4375 C-6.5 4.4375 -6.5 4.4375 -5.5 2.25 C-3.5 0.4375 -3.5 0.4375 0 0 Z " fill="#596160" transform="translate(46.5,74.5625)"/>
<path d="M0 0 C6.93 0 13.86 0 21 0 C19.02 0.99 19.02 0.99 17 2 C12.68731101 4.48306336 11.698723 7.49838404 10 12 C9.67 12 9.34 12 9 12 C8.731875 10.906875 8.46375 9.81375 8.1875 8.6875 C6.92639486 4.66350477 6.92639486 4.66350477 4 2 C2.68 1.34 1.36 0.68 0 0 Z " fill="#62686B" transform="translate(93,71)"/>
<path d="M0 0 C0.36174071 6.39075249 0.36174071 6.39075249 -1.1875 9 C-3 10 -3 10 -5.6875 9.6875 C-6.450625 9.460625 -7.21375 9.23375 -8 9 C-8.33 7.35 -8.66 5.7 -9 4 C-6.10130984 1.70103884 -3.84906588 0 0 0 Z " fill="#F1F1F1" transform="translate(235,59)"/>
<path d="M0 0 C1.41655793 -0.0272415 2.83327045 -0.04650467 4.25 -0.0625 C5.43335937 -0.07990234 5.43335937 -0.07990234 6.640625 -0.09765625 C9 0 9 0 13 1 C13 3.97 13 6.94 13 10 C12.01 10 11.02 10 10 10 C9.67 10.66 9.34 11.32 9 12 C8.731875 10.906875 8.46375 9.81375 8.1875 8.6875 C6.92639486 4.66350477 6.92639486 4.66350477 4 2 C2.67264057 1.32151702 1.33988437 0.6534004 0 0 Z " fill="#585C5F" transform="translate(115,71)"/>
<path d="M0 0 C1.670625 0.061875 1.670625 0.061875 3.375 0.125 C2.385 0.62 2.385 0.62 1.375 1.125 C1.375 3.435 1.375 5.745 1.375 8.125 C-5.375 7.25 -5.375 7.25 -7.625 6.125 C-4.84462617 0.16705607 -4.84462617 0.16705607 0 0 Z " fill="#4A4F52" transform="translate(92.625,74.875)"/>
<path d="M0 0 C3.89458617 1.34699973 6.48188271 3.00881909 8.4375 6.75 C8.623125 7.4925 8.80875 8.235 9 9 C6 8 6 8 3.75 5.5 C0.36055072 2.41868247 -1.45415827 2 -6 2 C-10.7187525 3.6987509 -13.63284522 6.33574332 -17 10 C-16.52723148 5.74508335 -14.07452523 3.77457155 -11 1 C-7.51670456 -0.74164772 -3.80836924 -0.44804344 0 0 Z " fill="#232D26" transform="translate(51,69)"/>
<path d="M0 0 C1.23556641 0.01740234 1.23556641 0.01740234 2.49609375 0.03515625 C3.32238281 0.04417969 4.14867188 0.05320312 5 0.0625 C5.63808594 0.07410156 6.27617188 0.08570312 6.93359375 0.09765625 C7.49609375 2.03515625 7.49609375 2.03515625 7.93359375 4.09765625 C6.93359375 5.09765625 6.93359375 5.09765625 4.8671875 5.1953125 C4.04347656 5.18371094 3.21976562 5.17210938 2.37109375 5.16015625 C1.54480469 5.15113281 0.71851562 5.14210938 -0.1328125 5.1328125 C-0.77089844 5.12121094 -1.40898438 5.10960938 -2.06640625 5.09765625 C-2.62890625 3.16015625 -2.62890625 3.16015625 -3.06640625 1.09765625 C-2.06640625 0.09765625 -2.06640625 0.09765625 0 0 Z " fill="#36393C" transform="translate(67.06640625,77.90234375)"/>
<path d="M0 0 C0.66 0.33 1.32 0.66 2 1 C1.360625 1.763125 0.72125 2.52625 0.0625 3.3125 C-2.14232781 5.88246713 -2.14232781 5.88246713 -3 9 C-4.43655854 9.08131463 -5.8744483 9.13933559 -7.3125 9.1875 C-8.51326172 9.23970703 -8.51326172 9.23970703 -9.73828125 9.29296875 C-12.47851584 8.93801608 -13.29171079 8.10633718 -15 6 C-14.67 5.34 -14.34 4.68 -14 4 C-6.125 4.875 -6.125 4.875 -5 6 C-3.35 4.02 -1.7 2.04 0 0 Z " fill="#616B66" transform="translate(40,72)"/>
<path d="M0 0 C-0.99 0.495 -0.99 0.495 -2 1 C-2 1.66 -2 2.32 -2 3 C-2.66 3 -3.32 3 -4 3 C-4 3.66 -4 4.32 -4 5 C-3.34 5 -2.68 5 -2 5 C-2 5.99 -2 6.98 -2 8 C-4.31 7.67 -6.62 7.34 -9 7 C-9.6875 5.1875 -9.6875 5.1875 -10 3 C-7.70195295 -1.02158234 -4.18378338 -0.23681793 0 0 Z " fill="#4A4F52" transform="translate(118,75)"/>
<path d="M0 0 C0 2.31 0 4.62 0 7 C-2.31 6.67 -4.62 6.34 -7 6 C-7.33 5.01 -7.66 4.02 -8 3 C-4.93882432 0.37613513 -4.26826873 0 0 0 Z " fill="#454A4C" transform="translate(48,76)"/>
<path d="M0 0 C1.875 0.125 1.875 0.125 4 1 C5.25 4.0625 5.25 4.0625 6 7 C5.38125 6.814375 4.7625 6.62875 4.125 6.4375 C1.95839822 5.76313824 1.95839822 5.76313824 0 7 C0 6.01 0 5.02 0 4 C-0.66 4 -1.32 4 -2 4 C-2 3.34 -2 2.68 -2 2 C-1.34 2 -0.68 2 0 2 C0 1.34 0 0.68 0 0 Z M-2 7 C0 8 0 8 0 8 Z " fill="#595E61" transform="translate(116,76)"/>
<path d="M0 0 C-0.3358407 3.10652645 -0.59049279 4.60414303 -2.875 6.8125 C-5 8 -5 8 -8 8 C-8 7.34 -8 6.68 -8 6 C-7.34 6 -6.68 6 -6 6 C-6 5.34 -6 4.68 -6 4 C-6.66 3.67 -7.32 3.34 -8 3 C-2.25 0 -2.25 0 0 0 Z " fill="#686D70" transform="translate(54,81)"/>
<path d="M0 0 C0.598125 0.226875 1.19625 0.45375 1.8125 0.6875 C1.4825 2.3375 1.1525 3.9875 0.8125 5.6875 C-1.1675 6.3475 -3.1475 7.0075 -5.1875 7.6875 C-5.41803497 4.84423536 -5.54653101 3.22604651 -3.9375 0.8125 C-2.1875 -0.3125 -2.1875 -0.3125 0 0 Z " fill="#676C6E" transform="translate(119.1875,81.3125)"/>
<path d="M0 0 C0.598125 0.226875 1.19625 0.45375 1.8125 0.6875 C1.4825 2.3375 1.1525 3.9875 0.8125 5.6875 C-1.1675 6.3475 -3.1475 7.0075 -5.1875 7.6875 C-5.41803497 4.84423536 -5.54653101 3.22604651 -3.9375 0.8125 C-2.1875 -0.3125 -2.1875 -0.3125 0 0 Z " fill="#666B6E" transform="translate(97.1875,81.3125)"/>
<path d="M0 0 C1.875 0.125 1.875 0.125 4 1 C5.25 4.0625 5.25 4.0625 6 7 C3.03 6.505 3.03 6.505 0 6 C-1.125 2.25 -1.125 2.25 0 0 Z " fill="#5A5F62" transform="translate(94,76)"/>
<path d="M0 0 C2.31 0 4.62 0 7 0 C7 1.32 7 2.64 7 4 C5.02 4 3.04 4 1 4 C0.67 2.68 0.34 1.36 0 0 Z " fill="#28372A" transform="translate(45,61)"/>
<path d="M0 0 C2.19219402 2.36689329 2.9871902 3.51727269 3.07421875 6.796875 C2.94660156 7.77140625 2.81898438 8.7459375 2.6875 9.75 C2.50767578 11.22726563 2.50767578 11.22726563 2.32421875 12.734375 C2.21722656 13.48203125 2.11023438 14.2296875 2 15 C1.67 15 1.34 15 1 15 C1 12.03 1 9.06 1 6 C-0.65 5.67 -2.3 5.34 -4 5 C-2.68 4.67 -1.36 4.34 0 4 C0 2.68 0 1.36 0 0 Z " fill="#BBC9B7" transform="translate(127,66)"/>
<path d="M0 0 C1.65 0 3.3 0 5 0 C5 1.65 5 3.3 5 5 C3.35 5 1.7 5 0 5 C0 3.35 0 1.7 0 0 Z " fill="#333333" transform="translate(285,38)"/>
<path d="M0 0 C1.32 0 2.64 0 4 0 C4 1.65 4 3.3 4 5 C2.68 5 1.36 5 0 5 C0 3.35 0 1.7 0 0 Z " fill="#0A0A0A" transform="translate(333,38)"/>
</svg>
